<?xml version="1.0" encoding="UTF-8" standalone="no"?>
<!-- Created with Inkscape (http://www.inkscape.org/) -->

<svg
   xmlns:dc="http://purl.org/dc/elements/1.1/"
   xmlns:cc="http://creativecommons.org/ns#"
   xmlns:rdf="http://www.w3.org/1999/02/22-rdf-syntax-ns#"
   xmlns:svg="http://www.w3.org/2000/svg"
   xmlns="http://www.w3.org/2000/svg"
   xmlns:sodipodi="http://sodipodi.sourceforge.net/DTD/sodipodi-0.dtd"
   xmlns:inkscape="http://www.inkscape.org/namespaces/inkscape"
   id="svg3390"
   version="1.1"
   inkscape:version="0.91 r13725"
   width="1846.25"
   height="1045"
   viewBox="0 0 1846.25 1045"
   sodipodi:docname="algorithm_taxonomy.svg">
  <metadata
     id="metadata3396">
    <rdf:RDF>
      <cc:Work
         rdf:about="">
        <dc:format>image/svg+xml</dc:format>
        <dc:type
           rdf:resource="http://purl.org/dc/dcmitype/StillImage" />
        <dc:title></dc:title>
      </cc:Work>
    </rdf:RDF>
  </metadata>
  <defs
     id="defs3394" />
  <sodipodi:namedview
     pagecolor="#ffffff"
     bordercolor="#666666"
     borderopacity="1"
     objecttolerance="10"
     gridtolerance="10"
     guidetolerance="10"
     inkscape:pageopacity="0"
     inkscape:pageshadow="2"
     inkscape:window-width="1920"
     inkscape:window-height="1056"
     id="namedview3392"
     showgrid="false"
     inkscape:zoom="0.86028708"
     inkscape:cx="769.4147"
     inkscape:cy="539.91978"
     inkscape:window-x="0"
     inkscape:window-y="24"
     inkscape:window-maximized="1"
     inkscape:current-layer="svg3390" />
  <path
     style="fill:#454545"
     d="m -9.1110214,1062.6926 c 2.24669,-0.2782 5.62169,-0.2724 7.5,0.013 1.87831001,0.2852 0.0401,0.5128 -4.08489,0.5058 -4.125,-0.01 -5.6617996,-0.2404 -3.41511,-0.5186 z m 13.80574,0.052 c 0.90234,-0.3611 1.98047,-0.3167 2.39583,0.099 0.41536,0.4153 -0.32292,0.7108 -1.64062,0.6565 -1.45618,-0.06 -1.75238,-0.3562 -0.75521,-0.7552 z m 39.9218704,0.026 c 0.85938,-0.3467 2.26563,-0.3467 3.125,0 0.85938,0.3468 0.15625,0.6305 -1.5625,0.6305 -1.71875,0 -2.42187,-0.2837 -1.5625,-0.6305 z m 31.5625,0.3487 c 0,-1.1137 4.60833,-1.5582 6.89496,-0.6651 1.88908,0.7378 1.36305,0.9895 -2.20746,1.0564 -2.57812,0.048 -4.6875,-0.1278 -4.6875,-0.3913 z m 96.015631,-0.3747 c 0.90233,-0.3611 1.98046,-0.3167 2.39583,0.099 0.41537,0.4154 -0.32292,0.7108 -1.64062,0.6565 -1.45619,-0.06 -1.75238,-0.3561 -0.75521,-0.7552 z m 43.75,0 c 0.90233,-0.3611 1.98046,-0.3167 2.39583,0.099 0.41537,0.4154 -0.32292,0.7108 -1.64062,0.6565 -1.45619,-0.06 -1.75238,-0.3561 -0.75521,-0.7552 z m 63.75,0 c 0.90233,-0.3611 1.98047,-0.3167 2.39583,0.099 0.41537,0.4154 -0.32292,0.7108 -1.64062,0.6565 -1.45619,-0.06 -1.75238,-0.3561 -0.75521,-0.7552 z m 153.75,0 c 0.90233,-0.3611 1.98047,-0.3167 2.39583,0.099 0.41537,0.4154 -0.32292,0.7108 -1.64062,0.6565 -1.45619,-0.06 -1.75238,-0.3561 -0.75521,-0.7552 z m 82.5,0 c 0.90233,-0.3611 1.98047,-0.3167 2.39583,0.099 0.41537,0.4154 -0.32292,0.7108 -1.64062,0.6565 -1.45619,-0.06 -1.75238,-0.3561 -0.75521,-0.7552 z m 13.75,0 c 0.90233,-0.3611 1.98047,-0.3167 2.39583,0.099 0.41537,0.4154 -0.32292,0.7108 -1.64062,0.6565 -1.45619,-0.06 -1.75238,-0.3561 -0.75521,-0.7552 z m 15,0 c 0.90233,-0.3611 1.98047,-0.3167 2.39583,0.099 0.41537,0.4154 -0.32292,0.7108 -1.64062,0.6565 -1.45619,-0.06 -1.75238,-0.3561 -0.75521,-0.7552 z m 53.75,0 c 0.90233,-0.3611 1.98047,-0.3167 2.39583,0.099 0.41537,0.4154 -0.32292,0.7108 -1.64062,0.6565 -1.45619,-0.06 -1.75238,-0.3561 -0.75521,-0.7552 z m 13.75,0 c 0.90233,-0.3611 1.98047,-0.3167 2.39583,0.099 0.41537,0.4154 -0.32292,0.7108 -1.64062,0.6565 -1.45619,-0.06 -1.75238,-0.3561 -0.75521,-0.7552 z m 62.5,0 c 0.90233,-0.3611 1.98047,-0.3167 2.39583,0.099 0.41537,0.4154 -0.32292,0.7108 -1.64062,0.6565 -1.45619,-0.06 -1.75238,-0.3561 -0.75521,-0.7552 z m 61.25003,0 c 0.9023,-0.3611 1.9804,-0.3167 2.3958,0.099 0.4154,0.4154 -0.3229,0.7108 -1.6406,0.6565 -1.4562,-0.06 -1.7524,-0.3561 -0.7552,-0.7552 z m 46.2499,0 c 0.9024,-0.3611 1.9805,-0.3167 2.3959,0.099 0.4153,0.4154 -0.3229,0.7108 -1.6406,0.6565 -1.4562,-0.06 -1.7524,-0.3561 -0.7553,-0.7552 z m 13.75,0 c 0.9024,-0.3611 1.9805,-0.3167 2.3959,0.099 0.4153,0.4154 -0.3229,0.7108 -1.6406,0.6565 -1.4562,-0.06 -1.7524,-0.3561 -0.7553,-0.7552 z m 92.5,0 c 0.9024,-0.3611 1.9805,-0.3167 2.3959,0.099 0.4153,0.4154 -0.3229,0.7108 -1.6406,0.6565 -1.4562,-0.06 -1.7524,-0.3561 -0.7553,-0.7552 z m 82.5,0 c 0.9023,-0.3611 1.9805,-0.3167 2.3958,0.099 0.4154,0.4154 -0.3229,0.7108 -1.6406,0.6565 -1.4562,-0.06 -1.7524,-0.3561 -0.7552,-0.7552 z m -133.2656,-29.3961 c -0.9815,-0.9814 -1.5,-6.1666 -1.5,-15 l 0,-13.5 -28.0436,0 c -15.424,0 -29.4825,-0.547 -31.2412,-1.2157 l -3.1976,-1.2157 -0.3213,-84.09683 -0.3213,-84.0968 -27.8125,-0.3364 c -15.2968,-0.1851 -27.9248,-0.1851 -28.0621,0 -0.1373,0.185 -0.5592,12.4302 -0.9375,27.2114 l -0.68786,26.875 -132.99005,0.3182 c -96.06544,0.2299 -133.45441,-0.067 -134.66254,-1.0698 -1.27658,-1.0595 -1.75237,-7.4967 -2.00995,-27.1932 l -0.33746,-25.8052 -29.375,-0.6832 c -16.15625,-0.3757 -29.51562,-0.7976 -29.6875,-0.9375 -0.17187,-0.1399 -0.3125,-61.8021 -0.3125,-137.02709 0,-75.22503 -0.34142,-137.66253 -0.75874,-138.75 -0.65906,-1.71749 -4.26215,-1.97724 -27.42713,-1.97724 l -26.66842,0 -0.38535,25.04756 c -0.31708,20.60984 -0.71756,25.25721 -2.26036,26.23086 -2.99101,1.8876 -314.108091,1.61348 -316.000001,-0.27842 -1.12191,-1.12191 -1.5,-15.58139 -1.5,-57.36626 0,-49.78962 0.21507,-55.9488 1.97724,-56.625 1.08748,-0.41732 72.49177,-0.75874 158.676221,-0.75874 123.98652,0 156.91012,0.32619 157.71027,1.5625 0.5562,0.85937 1.29252,13.375 1.63627,27.8125 l 0.625,26.25 26.25,0 26.25,0 0.625,-139.73323 c 0.54743,-122.38877 0.85774,-139.88033 2.5,-140.91836 1.03726,-0.65562 14.58074,-1.19369 30.3125,-1.20427 l 28.4375,-0.0191 0,-26 c 0,-18.55555 0.42949,-26.42949 1.5,-27.5 2.17669,-2.17669 266.07331,-2.17669 268.25,0 1.07056,1.0706 1.49996,8.94986 1.49996,27.52437 l 0,26.02438 27.1875,-0.33688 27.1875,-0.33687 0.3215,-83.69644 c 0.2146,-55.89278 0.7536,-84.129479 1.6223,-84.999999 0.7948,-0.79637 13.0716,-1.54674 31.5536,-1.92856 l 30.2526,-0.625 0.3391,-25.52894 c 0.2159,-16.25588 0.8391,-26.13139 1.7155,-27.1875 1.1333,-1.36546 36.7859,-1.65856 201.74615,-1.65856 110.2033,0 201.2594,0.34143 202.3469,0.75874 1.7624,0.67626 1.9773,6.85354 1.9773,56.83102 0,54.157699 -0.082,56.116459 -2.4179,57.366259 -3.8228,2.04587 -400.19885,1.78173 -402.95365,-0.26852 -1.8235,-1.35711 -2.1425,-4.84871 -2.4264,-26.5625 l -0.327,-25 -27.5,0 -27.5,0 -0.3215,81.58644 -0.3216,81.58643 27.8216,-0.33643 27.8215,-0.33644 0.3385,-24.55601 c 0.2568,-18.62634 0.7416,-24.89053 2.0077,-25.9413 1.2097,-1.004 57.197,-1.29823 203.41135,-1.06899 l 201.7424,0.3163 0,56.875 0,56.875 -203.125,0 -203.12495,0 -0.625,-26.875 -0.625,-26.875 -27.5,0 -27.5,0 -0.3219,78.46144 -0.3219,78.46143 27.8219,-0.33643 27.8219,-0.33644 0.3365,-27.05436 c 0.2579,-20.73048 0.7272,-27.37857 2.0077,-28.4413 1.2123,-1.00618 57.0558,-1.3001 203.41335,-1.07064 l 201.7424,0.3163 0.3252,56.58859 0.3253,56.58858 -3.2192,1.22392 c -4.3673,1.66046 -396.70625,1.6753 -401.07275,0.0151 l -3.1792,-1.2087 -0.3396,-24.10376 -0.3397,-24.10375 -30.1776,-0.33441 c -23.2151,-0.25727 -30.495,-0.71684 -31.5533,-1.99194 -0.9619,-1.159 -1.4723,-25.87068 -1.6973,-82.16558 l -0.3218,-80.50807 -26.875,0 -26.875,0 -0.3402,24.28036 c -0.2149,15.33029 -0.8472,24.8912 -1.71557,25.9375 -2.04039,2.45853 -266.34799,2.45853 -268.38838,0 -0.86835,-1.0463 -1.50072,-10.60721 -1.71556,-25.9375 l -0.34025,-24.28036 -26.25,0 -26.25,0 0,276.25 0,276.25001 26.25,0 26.25,0 0.625,-25.625 0.625,-25.625 134.375,0 134.375,0 0.69053,25.625 c 0.37983,14.0937 0.80163,25.7766 0.93753,25.9619 0.1358,0.1853 12.4813,0.1853 27.4344,0 l 27.1875,-0.3369 0.625,-80.25056 c 0.4099,-52.63486 1.0687,-80.694 1.9143,-81.53923 0.7938,-0.79351 12.8017,-1.41771 31.25,-1.62446 l 29.9607,-0.33576 0.3502,-15.98276 c 0.3466,-15.81905 0.3826,-15.99512 3.5189,-17.1875 4.3452,-1.65204 396.70345,-1.63803 401.04945,0.0144 l 3.2064,1.21906 0,33.11197 c 0,31.4575 -0.1213,33.17661 -2.4179,34.40593 -3.8228,2.0459 -400.20385,1.78175 -402.93765,-0.26852 -1.6556,-1.24163 -2.1539,-4.1295 -2.4264,-14.0625 l -0.343,-12.5 -27.5,0 -27.5,0 0,50.625 0,50.62503 27.5,0 27.5,0 0.3391,-14.37503 c 0.2761,-11.7033 0.7271,-14.6654 2.4264,-15.9375 1.6495,-1.2348 43.9383,-1.56255 201.60945,-1.56255 157.6453,0 199.9703,0.32795 201.6578,1.5625 1.9364,1.41666 2.1045,4.65429 1.8014,34.68748 l -0.3342,33.125 -203.125,0 -203.12495,0 -0.3522,-14.6875 -0.3521,-14.6875 -27.4996,0 c -23.3756,0 -27.6082,0.2832 -28.2241,1.8881 -0.3985,1.0384 -0.2402,23.6791 0.3518,50.3125 l 1.0762,48.4245 26.875,0 26.875,0 0.3549,-12.6947 c 0.2413,-8.6289 0.8843,-13.1339 2.0077,-14.0663 1.188,-0.9859 58.3838,-1.2827 203.39495,-1.0553 l 201.7424,0.3163 0.3336,32.9715 c 0.2355,23.2784 -0.085,33.476 -1.0906,34.6875 -2.0754,2.5006 -402.59845,2.5755 -404.67315,0.076 -0.7644,-0.921 -1.5167,-8.1843 -1.7156,-16.5625 l -0.3542,-14.9222 -27.2008,-0.3369 -27.2008,-0.3369 0.3258,54.0869 0.3258,54.0869 26.875,0 26.875,0 0.625,-15.625 0.625,-15.625 203.12495,0 203.125,0 0.3336,32.9716 c 0.2355,23.27843 -0.085,33.47603 -1.0906,34.68753 -1.9714,2.3754 -402.24485,2.5891 -404.61795,0.2159 z m 398.37215,-6.471 c 0.9973,-1.2017 1.3264,-9.7843 1.0905,-28.43763 l -0.3377,-26.7164 -196.875,0 -196.87495,0 -0.3378,26.7164 c -0.2358,18.65333 0.093,27.23593 1.0906,28.43763 1.2017,1.4479 32.325,1.721 196.12215,1.721 163.7972,0 194.9205,-0.2731 196.1222,-1.721 z m 0.7528,-139.52903 0,-28.125 -196.875,0 -196.87495,0 -0.3382,26.8441 c -0.186,14.7643 -0.062,27.5629 0.2748,28.4414 141.44116,2.59568 218.43605,1.24674 393.81335,0.9645 z m -527.17338,-56.5684 0.32652,-50.9434 -128.45152,0.3184 -128.45153,0.3184 -0.32729,49.3724 c -0.18001,27.1549 -0.056,50.0795 0.27553,50.9435 0.47966,1.2499 26.72534,1.5059 128.4523,1.2525 l 127.84946,-0.3184 z m 527.17338,-55.3069 0,-27.49998 -196.875,0 -196.87495,0 -0.3387,26.21768 c -0.1863,14.4198 -0.063,26.9371 0.2748,27.8164 0.4953,1.2907 38.4846,1.5377 197.21355,1.2823 l 196.6003,-0.3164 z m 0,-112.49998 0,-27.5 -196.875,0 -196.87495,0 -0.3387,26.2177 c -0.1863,14.41974 -0.063,26.93711 0.2748,27.81639 0.4953,1.29072 38.4846,1.53773 197.21355,1.2823 l 196.6003,-0.31639 z m -913.42338,-114.0625 -0.32653,-50.9375 -150,-0.34279 C 90.554089,497.44186 21.788469,497.5931 20.241589,497.96671 l -2.8125,0.6791 0,50.60119 0,50.60119 153.139031,0 153.13901,0 z m 913.74988,-118.75005 -0.3265,-50.9375 -196.875,0 -196.87495,0 -0.3273,49.37247 c -0.18,27.15485 -0.057,50.07673 0.2733,50.9375 0.4774,1.2442 40.9695,1.56503 197.52875,1.56503 l 196.9282,0 z m -0.3265,-160.3132 0,-50.625 -196.875,0 -196.87495,0 -0.3273,49.37247 c -0.18,27.15485 -0.056,50.07848 0.2748,50.94138 0.4801,1.25121 40.4134,1.50485 197.20215,1.25254 l 196.6003,-0.31639 z m -526.87491,-2.49995 0,-51.25 -128.125,0 -128.125,0 0,51.25 0,51.25 128.125,0 128.125,0 z M 1237.429,96.857181 c 0,-44.88832 -0.2194,-50.57546 -1.9773,-51.25 -1.0875,-0.41731 -89.2874,-0.75874 -196,-0.75874 -149.23975,0 -194.36885,0.34622 -195.52265,1.5 -1.1155,1.11556 -1.5,14.03704 -1.5,50.41667 0,26.904159 0.375,49.291669 0.8334,49.749989 0.4583,0.45834 89.3333,0.83334 197.49985,0.83334 l 196.6667,0 z"
     id="path3400"
     inkscape:connector-curvature="0"
     sodipodi:nodetypes="cccccccsccccscsccsccsccccsccccsccccsccccsccccsccccsccccsccccsccccsccccsccccsccccsccccsccccscccscsccccscscscscscscscsssscssscccssscsscscccscscscscscsscccccccscscccccccccccccscscccsccccscscccsssscccccccccccscscscscssccscsscccccccssssscccccssscccscscsccscccccccccccsccccscccscscccccscccccccscsccccccscsccccccscsccccscccccccccccscsccccccscscccccccccccscscscscs" />
  <flowRoot
     xml:space="preserve"
     id="flowRoot3410"
     style="fill:black;stroke:none;stroke-opacity:1;stroke-width:1px;stroke-linejoin:miter;stroke-linecap:butt;fill-opacity:1;font-family:sans-serif;font-style:normal;font-weight:normal;font-size:40px;line-height:125%;letter-spacing:0px;word-spacing:0px"><flowRegion
       id="flowRegion3412"><rect
         id="rect3414"
         width="316.17352"
         height="109.26585"
         x="13.948833"
         y="491.69632" /></flowRegion><flowPara
       id="flowPara3416"></flowPara></flowRoot>  <text
     xml:space="preserve"
     style="font-style:normal;font-variant:normal;font-weight:bold;font-stretch:normal;font-size:27.5px;line-height:125%;font-family:'Times New Roman';-inkscape-font-specification:'Times New Roman, Bold';text-align:center;letter-spacing:0px;word-spacing:0px;writing-mode:lr-tb;text-anchor:middle;fill:#000000;fill-opacity:1;stroke:none;stroke-width:1px;stroke-linecap:butt;stroke-linejoin:miter;stroke-opacity:1"
     x="166.90855"
     y="536.65173"
     id="text3418"
     sodipodi:linespacing="125%"
     transform="scale(1.0279454,0.97281432)"><tspan
       sodipodi:role="line"
       id="tspan3420"
       x="170.34605"
       y="536.65173"
       style="font-style:normal;font-variant:normal;font-weight:bold;font-stretch:normal;font-size:27.5px;line-height:125%;font-family:'Times New Roman';-inkscape-font-specification:'Times New Roman, Bold';text-align:center;writing-mode:lr-tb;text-anchor:middle">Algoritmos de </tspan><tspan
       sodipodi:role="line"
       x="170.34605"
       y="571.02673"
       style="font-style:normal;font-variant:normal;font-weight:bold;font-stretch:normal;font-size:27.5px;line-height:125%;font-family:'Times New Roman';-inkscape-font-specification:'Times New Roman, Bold';text-align:center;writing-mode:lr-tb;text-anchor:middle"
       id="tspan3424">Aprendizaje </tspan><tspan
       sodipodi:role="line"
       x="166.90855"
       y="605.40173"
       style="font-style:normal;font-variant:normal;font-weight:bold;font-stretch:normal;font-size:27.5px;line-height:125%;font-family:'Times New Roman';-inkscape-font-specification:'Times New Roman, Bold';text-align:center;writing-mode:lr-tb;text-anchor:middle"
       id="tspan3422">Multi-etiquetas</tspan></text>
  <text
     xml:space="preserve"
     style="font-style:normal;font-variant:normal;font-weight:bold;font-stretch:normal;font-size:27.5px;line-height:125%;font-family:'Times New Roman';-inkscape-font-specification:'Times New Roman, Bold';text-align:center;letter-spacing:0px;word-spacing:0px;writing-mode:lr-tb;text-anchor:middle;fill:#000000;fill-opacity:1;stroke:none;stroke-width:1px;stroke-linecap:butt;stroke-linejoin:miter;stroke-opacity:1"
     x="567.01996"
     y="263.80209"
     id="text3418-6"
     sodipodi:linespacing="125%"
     transform="scale(1.0279454,0.97281432)"><tspan
       sodipodi:role="line"
       x="567.01996"
       y="263.80209"
       style="font-style:normal;font-variant:normal;font-weight:bold;font-stretch:normal;font-size:27.5px;line-height:125%;font-family:'Times New Roman';-inkscape-font-specification:'Times New Roman, Bold';text-align:center;writing-mode:lr-tb;text-anchor:middle"
       id="tspan3422-7">Transformación</tspan><tspan
       sodipodi:role="line"
       x="567.01996"
       y="298.17709"
       style="font-style:normal;font-variant:normal;font-weight:bold;font-stretch:normal;font-size:27.5px;line-height:125%;font-family:'Times New Roman';-inkscape-font-specification:'Times New Roman, Bold';text-align:center;writing-mode:lr-tb;text-anchor:middle"
       id="tspan3457">del Problema</tspan></text>
  <text
     xml:space="preserve"
     style="font-style:normal;font-weight:normal;font-size:27.5px;line-height:125%;font-family:sans-serif;text-align:center;letter-spacing:0px;word-spacing:0px;writing-mode:lr-tb;text-anchor:middle;fill:#000000;fill-opacity:1;stroke:none;stroke-width:1px;stroke-linecap:butt;stroke-linejoin:miter;stroke-opacity:1"
     x="567.36438"
     y="842.5816"
     id="text3418-6-5"
     sodipodi:linespacing="125%"
     transform="scale(1.0279454,0.97281432)"><tspan
       sodipodi:role="line"
       x="567.36438"
       y="842.5816"
       style="font-style:normal;font-variant:normal;font-weight:bold;font-stretch:normal;font-size:27.5px;line-height:125%;font-family:'Times New Roman';-inkscape-font-specification:'Times New Roman, Bold';text-align:center;writing-mode:lr-tb;text-anchor:middle"
       id="tspan3457-2">Adaptación</tspan><tspan
       sodipodi:role="line"
       x="567.36438"
       y="876.9566"
       style="font-style:normal;font-variant:normal;font-weight:bold;font-stretch:normal;font-size:27.5px;line-height:125%;font-family:'Times New Roman';-inkscape-font-specification:'Times New Roman, Bold';text-align:center;writing-mode:lr-tb;text-anchor:middle"
       id="tspan3490"><tspan
   id="tspan3629"
   style="font-style:normal;font-variant:normal;font-weight:bold;font-stretch:normal;font-size:27.5px;line-height:125%;font-family:'Times New Roman';-inkscape-font-specification:'Times New Roman, Bold';text-align:center;writing-mode:lr-tb;text-anchor:middle">del </tspan>Algoritmo</tspan></text>
  <text
     xml:space="preserve"
     style="font-style:normal;font-variant:normal;font-weight:bold;font-stretch:normal;font-size:38.91257477px;line-height:125%;font-family:'Times New Roman';-inkscape-font-specification:'Times New Roman, Bold';text-align:center;letter-spacing:0px;word-spacing:0px;writing-mode:lr-tb;text-anchor:middle;fill:#000000;fill-opacity:1;stroke:none;stroke-width:1px;stroke-linecap:butt;stroke-linejoin:miter;stroke-opacity:1"
     x="1012.2888"
     y="88.88224"
     id="text3418-6-1"
     sodipodi:linespacing="125%"
     transform="scale(1.0279454,0.97281432)"><tspan
       sodipodi:role="line"
       x="1012.2888"
       y="88.88224"
       style="font-style:normal;font-variant:normal;font-weight:bold;font-stretch:normal;font-size:27.5px;line-height:125%;font-family:'Times New Roman';-inkscape-font-specification:'Times New Roman, Bold';text-align:center;writing-mode:lr-tb;text-anchor:middle"
       id="tspan3422-7-7">Transformación</tspan><tspan
       sodipodi:role="line"
       x="1012.2888"
       y="119.28268"
       style="font-style:normal;font-variant:normal;font-weight:bold;font-stretch:normal;font-size:27.5px;line-height:125%;font-family:'Times New Roman';-inkscape-font-specification:'Times New Roman, Bold';text-align:center;writing-mode:lr-tb;text-anchor:middle"
       id="tspan3457-5">a clasificación binaria</tspan></text>
  <text
     xml:space="preserve"
     style="font-style:normal;font-variant:normal;font-weight:bold;font-stretch:normal;font-size:38.91257477px;line-height:125%;font-family:'Times New Roman';-inkscape-font-specification:'Times New Roman, Bold';text-align:center;letter-spacing:0px;word-spacing:0px;writing-mode:lr-tb;text-anchor:middle;fill:#000000;fill-opacity:1;stroke:none;stroke-width:1px;stroke-linecap:butt;stroke-linejoin:miter;stroke-opacity:1"
     x="1012.366"
     y="435.39932"
     id="text3418-6-7"
     sodipodi:linespacing="125%"
     transform="scale(1.0279454,0.97281432)"><tspan
       sodipodi:role="line"
       x="1012.366"
       y="435.39932"
       style="font-style:normal;font-variant:normal;font-weight:bold;font-stretch:normal;font-size:27.5px;line-height:125%;font-family:'Times New Roman';-inkscape-font-specification:'Times New Roman, Bold';text-align:center;writing-mode:lr-tb;text-anchor:middle"
       id="tspan3422-7-4">Transformación</tspan><tspan
       sodipodi:role="line"
       x="1012.366"
       y="465.79977"
       style="font-style:normal;font-variant:normal;font-weight:bold;font-stretch:normal;font-size:27.5px;line-height:125%;font-family:'Times New Roman';-inkscape-font-specification:'Times New Roman, Bold';text-align:center;writing-mode:lr-tb;text-anchor:middle"
       id="tspan3457-8">a clasificación multi clase</tspan></text>
  <text
     xml:space="preserve"
     style="font-style:normal;font-variant:normal;font-weight:bold;font-stretch:normal;font-size:38.91257477px;line-height:125%;font-family:'Times New Roman';-inkscape-font-specification:'Times New Roman, Bold';text-align:center;letter-spacing:0px;word-spacing:0px;writing-mode:lr-tb;text-anchor:middle;fill:#000000;fill-opacity:1;stroke:none;stroke-width:1px;stroke-linecap:butt;stroke-linejoin:miter;stroke-opacity:1"
     x="1012.5144"
     y="269.31009"
     id="text3418-6-59"
     sodipodi:linespacing="125%"
     transform="scale(1.0279454,0.97281432)"><tspan
       sodipodi:role="line"
       x="1012.5144"
       y="269.31009"
       style="font-style:normal;font-variant:normal;font-weight:bold;font-stretch:normal;font-size:27.5px;line-height:125%;font-family:'Times New Roman';-inkscape-font-specification:'Times New Roman, Bold';text-align:center;writing-mode:lr-tb;text-anchor:middle"
       id="tspan3422-7-75">Transformación</tspan><tspan
       sodipodi:role="line"
       x="1012.5144"
       y="299.71054"
       style="font-style:normal;font-variant:normal;font-weight:bold;font-stretch:normal;font-size:27.5px;line-height:125%;font-family:'Times New Roman';-inkscape-font-specification:'Times New Roman, Bold';text-align:center;writing-mode:lr-tb;text-anchor:middle"
       id="tspan3457-88">a etiquetas rankeadas</tspan></text>
  <text
     xml:space="preserve"
     style="font-style:normal;font-variant:normal;font-weight:bold;font-stretch:normal;font-size:38.91257477px;line-height:125%;font-family:'Times New Roman';-inkscape-font-specification:'Times New Roman, Bold';text-align:center;letter-spacing:0px;word-spacing:0px;writing-mode:lr-tb;text-anchor:middle;fill:#000000;fill-opacity:1;stroke:none;stroke-width:1px;stroke-linecap:butt;stroke-linejoin:miter;stroke-opacity:1"
     x="1012.9716"
     y="685.13055"
     id="text3418-6-3"
     sodipodi:linespacing="125%"
     transform="scale(1.0279454,0.97281432)"><tspan
       sodipodi:role="line"
       x="1012.9716"
       y="685.13055"
       style="font-style:normal;font-variant:normal;font-weight:bold;font-stretch:normal;font-size:27.5px;line-height:125%;font-family:'Times New Roman';-inkscape-font-specification:'Times New Roman, Bold';text-align:center;writing-mode:lr-tb;text-anchor:middle"
       id="tspan3457-6">Aprendizaje perezoso</tspan></text>
  <text
     xml:space="preserve"
     style="font-style:normal;font-variant:normal;font-weight:bold;font-stretch:normal;font-size:38.91257477px;line-height:125%;font-family:'Times New Roman';-inkscape-font-specification:'Times New Roman, Bold';text-align:center;letter-spacing:0px;word-spacing:0px;writing-mode:lr-tb;text-anchor:middle;fill:#000000;fill-opacity:1;stroke:none;stroke-width:1px;stroke-linecap:butt;stroke-linejoin:miter;stroke-opacity:1"
     x="1012.9003"
     y="804.6192"
     id="text3418-6-4"
     sodipodi:linespacing="125%"
     transform="scale(1.0279454,0.97281432)"><tspan
       sodipodi:role="line"
       x="1012.9003"
       y="804.6192"
       style="font-style:normal;font-variant:normal;font-weight:bold;font-stretch:normal;font-size:27.5px;line-height:125%;font-family:'Times New Roman';-inkscape-font-specification:'Times New Roman, Bold';text-align:center;writing-mode:lr-tb;text-anchor:middle"
       id="tspan3457-86">Árbol de decisión</tspan></text>
  <text
     xml:space="preserve"
     style="font-style:normal;font-variant:normal;font-weight:bold;font-stretch:normal;font-size:38.91257477px;line-height:125%;font-family:'Times New Roman';-inkscape-font-specification:'Times New Roman, Bold';text-align:center;letter-spacing:0px;word-spacing:0px;writing-mode:lr-tb;text-anchor:middle;fill:#000000;fill-opacity:1;stroke:none;stroke-width:1px;stroke-linecap:butt;stroke-linejoin:miter;stroke-opacity:1"
     x="1012.0631"
     y="916.93854"
     id="text3418-6-0"
     sodipodi:linespacing="125%"
     transform="scale(1.0279454,0.97281432)"><tspan
       sodipodi:role="line"
       x="1012.0631"
       y="916.93854"
       style="font-style:normal;font-variant:normal;font-weight:bold;font-stretch:normal;font-size:27.5px;line-height:125%;font-family:'Times New Roman';-inkscape-font-specification:'Times New Roman, Bold';text-align:center;writing-mode:lr-tb;text-anchor:middle"
       id="tspan3457-9">Aprendizaje por <tspan
   style="font-style:italic;font-variant:normal;font-weight:bold;font-stretch:normal;font-family:'Times New Roman';-inkscape-font-specification:'Times New Roman, Bold Italic';font-size:27.5px"
   id="tspan3613">kernel</tspan></tspan></text>
  <text
     xml:space="preserve"
     style="font-style:normal;font-variant:normal;font-weight:bold;font-stretch:normal;font-size:38.91257477px;line-height:125%;font-family:'Times New Roman';-inkscape-font-specification:'Times New Roman, Bold';text-align:center;letter-spacing:0px;word-spacing:0px;writing-mode:lr-tb;text-anchor:middle;fill:#000000;fill-opacity:1;stroke:none;stroke-width:1px;stroke-linecap:butt;stroke-linejoin:miter;stroke-opacity:1"
     x="1012.5916"
     y="1035.2323"
     id="text3418-6-77"
     sodipodi:linespacing="125%"
     transform="scale(1.0279454,0.97281432)"><tspan
       sodipodi:role="line"
       x="1012.5916"
       y="1035.2323"
       style="font-style:normal;font-variant:normal;font-weight:bold;font-stretch:normal;font-size:27.5px;line-height:125%;font-family:'Times New Roman';-inkscape-font-specification:'Times New Roman, Bold';text-align:center;writing-mode:lr-tb;text-anchor:middle"
       id="tspan3457-3">Información teórica</tspan></text>
  <text
     xml:space="preserve"
     style="font-style:italic;font-variant:normal;font-weight:normal;font-stretch:normal;font-size:27.5px;line-height:125%;font-family:'Times New Roman';-inkscape-font-specification:'Times New Roman, Italic';letter-spacing:0px;word-spacing:0px;fill:#000000;fill-opacity:1;stroke:none;stroke-width:1px;stroke-linecap:butt;stroke-linejoin:miter;stroke-opacity:1;text-anchor:start;text-align:start;writing-mode:lr;"
     x="1294.3337"
     y="69.744156"
     id="text3631"
     sodipodi:linespacing="125%"><tspan
       sodipodi:role="line"
       id="tspan3633"
       x="1294.3337"
       y="69.744156">Binary Relevance</tspan></text>
  <text
     xml:space="preserve"
     style="font-style:italic;font-variant:normal;font-weight:normal;font-stretch:normal;font-size:27.5px;line-height:125%;font-family:'Times New Roman';-inkscape-font-specification:'Times New Roman, Italic';text-align:start;letter-spacing:0px;word-spacing:0px;writing-mode:lr-tb;text-anchor:start;fill:#000000;fill-opacity:1;stroke:none;stroke-width:1px;stroke-linecap:butt;stroke-linejoin:miter;stroke-opacity:1"
     x="1291.8496"
     y="141.4183"
     id="text3631-0"
     sodipodi:linespacing="125%"><tspan
       sodipodi:role="line"
       id="tspan3633-3"
       x="1291.8496"
       y="141.4183">Classifier Chains</tspan></text>
  <text
     xml:space="preserve"
     style="font-style:italic;font-variant:normal;font-weight:normal;font-stretch:normal;font-size:27.5px;line-height:125%;font-family:'Times New Roman';-inkscape-font-specification:'Times New Roman, Italic';text-align:start;letter-spacing:0px;word-spacing:0px;writing-mode:lr-tb;text-anchor:start;fill:#000000;fill-opacity:1;stroke:none;stroke-width:1px;stroke-linecap:butt;stroke-linejoin:miter;stroke-opacity:1"
     x="1291.8496"
     y="275.74423"
     id="text3631-09"
     sodipodi:linespacing="125%"><tspan
       sodipodi:role="line"
       id="tspan3633-2"
       x="1291.8496"
       y="275.74423">Calibrated Label Ranking</tspan></text>
  <text
     xml:space="preserve"
     style="font-style:italic;font-variant:normal;font-weight:normal;font-stretch:normal;font-size:27.5px;line-height:125%;font-family:'Times New Roman';-inkscape-font-specification:'Times New Roman, Italic';letter-spacing:0px;word-spacing:0px;fill:#000000;fill-opacity:1;stroke:none;stroke-width:1px;stroke-linecap:butt;stroke-linejoin:miter;stroke-opacity:1;text-anchor:start;text-align:start;writing-mode:lr;"
     x="1294.3337"
     y="439.45502"
     id="text3631-5"
     sodipodi:linespacing="125%"><tspan
       sodipodi:role="line"
       id="tspan3633-4"
       x="1294.3337"
       y="439.45502">Random k-labelsets</tspan></text>
  <text
     xml:space="preserve"
     style="font-style:italic;font-variant:normal;font-weight:normal;font-stretch:normal;font-size:27.5px;line-height:125%;font-family:'Times New Roman';-inkscape-font-specification:'Times New Roman, Italic';text-align:start;letter-spacing:0px;word-spacing:0px;writing-mode:lr-tb;text-anchor:start;fill:#000000;fill-opacity:1;stroke:none;stroke-width:1px;stroke-linecap:butt;stroke-linejoin:miter;stroke-opacity:1"
     x="1294.6023"
     y="669.63068"
     id="text3631-5-4"
     sodipodi:linespacing="125%"><tspan
       sodipodi:role="line"
       id="tspan3633-4-7"
       x="1294.6023"
       y="669.63068">ML-kNN</tspan></text>
  <text
     xml:space="preserve"
     style="font-style:italic;font-variant:normal;font-weight:normal;font-stretch:normal;font-size:27.5px;line-height:125%;font-family:'Times New Roman';-inkscape-font-specification:'Times New Roman, Italic';text-align:start;letter-spacing:0px;word-spacing:0px;writing-mode:lr-tb;text-anchor:start;fill:#000000;fill-opacity:1;stroke:none;stroke-width:1px;stroke-linecap:butt;stroke-linejoin:miter;stroke-opacity:1"
     x="1294.6023"
     y="785.82397"
     id="text3631-5-4-4"
     sodipodi:linespacing="125%"><tspan
       sodipodi:role="line"
       id="tspan3633-4-7-7"
       x="1294.6023"
       y="785.82397">ML-DT</tspan></text>
  <text
     xml:space="preserve"
     style="font-style:italic;font-variant:normal;font-weight:normal;font-stretch:normal;font-size:27.5px;line-height:125%;font-family:'Times New Roman';-inkscape-font-specification:'Times New Roman, Italic';text-align:start;letter-spacing:0px;word-spacing:0px;writing-mode:lr-tb;text-anchor:start;fill:#000000;fill-opacity:1;stroke:none;stroke-width:1px;stroke-linecap:butt;stroke-linejoin:miter;stroke-opacity:1"
     x="1294.6023"
     y="896.2522"
     id="text3631-5-4-7"
     sodipodi:linespacing="125%"><tspan
       sodipodi:role="line"
       id="tspan3633-4-7-1"
       x="1294.6023"
       y="896.2522">ML-SVM</tspan></text>
  <text
     xml:space="preserve"
     style="font-style:italic;font-variant:normal;font-weight:normal;font-stretch:normal;font-size:27.5px;line-height:125%;font-family:'Times New Roman';-inkscape-font-specification:'Times New Roman, Italic';text-align:start;letter-spacing:0px;word-spacing:0px;writing-mode:lr-tb;text-anchor:start;fill:#000000;fill-opacity:1;stroke:none;stroke-width:1px;stroke-linecap:butt;stroke-linejoin:miter;stroke-opacity:1"
     x="1291.8496"
     y="1012.4925"
     id="text3631-5-4-3"
     sodipodi:linespacing="125%"><tspan
       sodipodi:role="line"
       id="tspan3633-4-7-3"
       x="1291.8496"
       y="1012.4925">CML</tspan></text>
</svg>
